<svg data-v-1084b650="" xmlns="http://www.w3.org/2000/svg" viewBox="0 0 300 300"><!----> <!----> <rect data-v-1084b650="" fill="#FDF7EC" x="0" y="0" width="300px" height="300px" class="logo-background-square"></rect> <!----> <g data-v-1084b650="" id="3292c3c0-2519-1572-349c-c21af3feb83f" fill="#342103" transform="matrix(3.0999999999999996,0,0,3.0999999999999996,35.31550837755205,166.68109259605407)"><path d="M1.89 13.58L1.89 3.92L1.36 3.92L1.36 13.58ZM4.73 12.43C4.72 12.24 4.72 12.05 4.72 11.69L4.72 6.68L6.15 6.68L6.15 6.26L4.72 6.26L4.72 4.69L4.19 4.69L4.19 6.26L3.28 6.26L3.28 6.68L4.19 6.68L4.19 11.66C4.19 12.08 4.19 12.33 4.21 12.64C4.27 13.36 4.65 13.68 5.38 13.68C5.64 13.68 5.94 13.66 6.16 13.64L6.16 13.22C5.11 13.37 4.79 13.16 4.73 12.43ZM13.31 9.69C13.31 7.77 12.29 6.01 10.21 6.01C8.33 6.01 6.86 7.53 6.86 9.87C6.86 12.46 8.32 13.78 10.08 13.78C11.51 13.78 12.80 12.95 13.20 11.28L12.66 11.28C12.29 12.68 11.23 13.33 10.11 13.33C8.82 13.33 7.50 12.43 7.42 10.04L13.30 10.04C13.31 9.86 13.31 9.76 13.31 9.69ZM10.18 6.45C11.42 6.45 12.68 7.29 12.77 9.58L7.42 9.58C7.50 7.46 8.89 6.45 10.18 6.45ZM24.32 8.16C24.16 6.82 23.42 6.01 22.09 6.01C21.35 6.01 20.72 6.27 20.24 6.83L19.75 7.78C19.50 6.66 18.79 6.01 17.60 6.01C16.86 6.01 16.21 6.27 15.74 6.83L15.37 7.64L15.37 6.20L14.84 6.20L14.84 13.58L15.37 13.58L15.37 9.49C15.37 7.35 16.32 6.45 17.47 6.45C18.59 6.45 19.15 7.20 19.29 8.34C19.33 8.72 19.35 9.06 19.35 9.62L19.35 13.58L19.88 13.58L19.88 9.49C19.88 7.35 20.82 6.45 21.98 6.45C23.10 6.45 23.66 7.20 23.79 8.34C23.83 8.72 23.84 9.06 23.84 9.62L23.84 13.58L24.37 13.58L24.37 9.38C24.37 8.78 24.36 8.54 24.32 8.16ZM33.14 3.72C30.60 3.72 28.71 5.78 28.71 8.78C28.71 11.84 30.45 13.78 32.96 13.78C35.32 13.78 36.54 12.32 36.86 10.53L36.88 10.39L36.34 10.39L36.32 10.53C35.99 12.11 34.94 13.31 32.98 13.31C30.95 13.31 29.30 11.76 29.30 8.75C29.30 5.85 31.09 4.19 33.10 4.19C34.93 4.19 36.01 5.32 36.32 6.85L36.34 6.99L36.88 6.99L36.86 6.85C36.54 5.08 35.34 3.72 33.14 3.72ZM43.19 13.58L43.74 13.58C43.65 12.64 43.61 12.10 43.61 11.33L43.61 8.92C43.61 8.55 43.61 8.32 43.58 7.95C43.47 6.72 42.69 6.01 41.16 6.01C39.66 6.01 38.58 6.97 38.49 8.29L39.03 8.29C39.19 7 40.14 6.45 41.16 6.45C42.32 6.45 42.97 7.01 43.05 8.01C43.08 8.32 43.08 8.61 43.08 8.95L43.08 9.28L42.60 9.28C40.15 9.28 38.19 10.05 38.19 11.76C38.19 13.09 39.12 13.78 40.50 13.78C41.43 13.78 42.24 13.43 42.74 12.71L43.09 11.97ZM40.63 13.33C39.40 13.33 38.78 12.73 38.78 11.73C38.78 10.15 40.95 9.59 43.08 9.73L43.08 10.68C43.08 12.11 42.10 13.33 40.63 13.33ZM46.44 12.43C46.42 12.24 46.42 12.05 46.42 11.69L46.42 6.68L47.85 6.68L47.85 6.26L46.42 6.26L46.42 4.69L45.89 4.69L45.89 6.26L44.98 6.26L44.98 6.68L45.89 6.68L45.89 11.66C45.89 12.08 45.89 12.33 45.92 12.64C45.98 13.36 46.35 13.68 47.08 13.68C47.35 13.68 47.64 13.66 47.87 13.64L47.87 13.22C46.82 13.37 46.49 13.16 46.44 12.43ZM53.80 13.58L54.35 13.58C54.26 12.64 54.22 12.10 54.22 11.33L54.22 8.92C54.22 8.55 54.22 8.32 54.19 7.95C54.08 6.72 53.30 6.01 51.77 6.01C50.27 6.01 49.20 6.97 49.10 8.29L49.64 8.29C49.80 7 50.75 6.45 51.77 6.45C52.93 6.45 53.58 7.01 53.66 8.01C53.69 8.32 53.69 8.61 53.69 8.95L53.69 9.28L53.21 9.28C50.76 9.28 48.80 10.05 48.80 11.76C48.80 13.09 49.73 13.78 51.11 13.78C52.04 13.78 52.85 13.43 53.35 12.71L53.70 11.97ZM51.24 13.33C50.01 13.33 49.39 12.73 49.39 11.73C49.39 10.15 51.56 9.59 53.69 9.73L53.69 10.68C53.69 12.11 52.71 13.33 51.24 13.33ZM56.73 3.29L56.20 3.29L56.20 11.80C56.20 12.29 56.20 12.54 56.21 12.82C56.24 13.47 56.57 13.65 57.04 13.65C57.20 13.65 57.39 13.65 57.55 13.61L57.55 13.19C56.95 13.26 56.77 13.15 56.74 12.68C56.73 12.47 56.73 12.21 56.73 11.79ZM61.85 6.01C59.67 6.01 58.34 7.62 58.34 9.90C58.34 12.17 59.67 13.78 61.85 13.78C64.04 13.78 65.37 12.17 65.37 9.90C65.37 7.62 64.04 6.01 61.85 6.01ZM61.85 13.33C60.28 13.33 58.93 12.18 58.93 9.90C58.93 7.60 60.28 6.45 61.85 6.45C63.42 6.45 64.79 7.60 64.79 9.90C64.79 12.18 63.42 13.33 61.85 13.33ZM72.63 6.16L72.10 6.16L72.10 7.70L71.68 6.85C71.13 6.26 70.48 6.01 69.62 6.01C67.82 6.01 66.21 7.32 66.21 9.95C66.21 12.18 67.45 13.78 69.44 13.78C70.38 13.78 71.06 13.52 71.67 12.85L72.10 12.01L72.10 12.26C72.10 12.84 72.10 13.17 72.09 13.64C72.04 15.15 71.16 16.17 69.50 16.17C68.26 16.17 67.23 15.64 67.06 14.35L67.05 14.17L66.50 14.17L66.53 14.35C66.74 16.00 67.93 16.63 69.47 16.63C71.41 16.63 72.56 15.47 72.62 13.68C72.63 13.22 72.63 12.64 72.63 11.65ZM69.50 13.33C67.73 13.33 66.79 11.75 66.79 9.88C66.79 7.81 67.97 6.45 69.62 6.45C70.76 6.45 72.10 7.17 72.10 9.45L72.10 10.16C72.10 12.52 70.90 13.33 69.50 13.33Z"></path></g> <linearGradient data-v-1084b650="" gradientTransform="rotate(25)" id="0e05cd74-5d38-b313-39fa-a6e7b62e79a8" x1="0%" y1="0%" x2="100%" y2="0%"><stop data-v-1084b650="" offset="0%" style="stop-color: rgb(229, 101, 0); stop-opacity: 1;"></stop> <stop data-v-1084b650="" offset="100%" style="stop-color: rgb(235, 197, 29); stop-opacity: 1;"></stop></linearGradient> <g data-v-1084b650="" id="9fb37e0c-9270-0e19-ffb9-fb6f007c2d3f" fill="url(#0e05cd74-5d38-b313-39fa-a6e7b62e79a8)" stroke="none" transform="matrix(0.27847655258601645,0,0,0.27847655258601645,108.20817417157691,80.26643085658142)"><svg xmlns="http://www.w3.org/2000/svg" viewBox="0 0 100 100"><switch><g><g fill-rule="evenodd" clip-rule="evenodd"><path d="M57.686 37.34a15.965 15.965 0 0 1 5.502 4.466c3.798.853 7.455 2.232 9.047 4.471 3.943 5.546-12.08 7.567-20.437 8.052-8.357.485-20.047-2.267-23.394-5.955-2.143-2.362 3.495-5.003 10.206-6.586 1.606-1.938 3.582-3.495 5.757-4.551-10.935 1.159-31.035 5.524-30.646 16.726.187 5.362 7.166 6.92 15.221 7.194.555 5.75.582 22.835-1.549 28.942C25.238 96.272 39.425 99.039 49.5 99c9.839-.042 20.087-2.428 22.818-5.788 2.657-3.268-3.369-12.567-1.07-32.872 8.007-.817 14.801-2.983 15.013-8.39.321-8.287-15.643-13.175-28.575-14.61zm-8.232 30.216c-8.088.25-17.515-2.351-19.178-3.972l-.243-2.396c7.222.144 15.087-.636 19.604-.583 4.882.055 12.917.461 20.222-.138l-.204 2.806c-1.682 2.67-13.362 4.072-20.201 4.283z"></path><path d="M46.12 38.334c-4.376 1.74-7.902 5.728-9.253 10.222-.629 1.687 3.2 3.293 8.447 3.767 1.454.131 3.013.176 4.621.112 7.877-.319 14.991-1.245 14.911-2.099-.479-5.16-3.743-9.61-8.381-11.689 2.02-2.867 4.442-9.215 6.238-16.792 2.528-10.674 2.849-19.739.714-20.243-2.132-.506-5.911 7.738-8.44 18.413-1.753 7.409-2.442 14.037-1.986 17.571a14.703 14.703 0 0 0-1.078-.146 12.248 12.248 0 0 0-2.592.046c1.132-3.318 1.672-10.091 1.264-17.868C50.007 8.673 47.766-.115 45.574.001c-2.188.115-3.494 9.09-2.918 20.044.44 8.356 1.848 15.447 3.464 18.289zm11.08 7.212a2.04 2.04 0 0 1 1.849 2.216 2.04 2.04 0 1 1-4.065-.365 2.043 2.043 0 0 1 2.216-1.851zm-9.777 1.168a2.04 2.04 0 1 1-4.064-.368 2.04 2.04 0 0 1 4.064.368z"></path></g></g></switch></svg></g></svg>