<svg data-v-1084b650="" xmlns="http://www.w3.org/2000/svg" viewBox="0 0 300 300"><!----> <!----> <rect data-v-1084b650="" fill="#FDF7EC" x="0" y="0" width="300px" height="300px" class="logo-background-square"></rect> <!----> <linearGradient data-v-1084b650="" gradientTransform="rotate(25)" id="62b814c3-3d8b-9fa8-2941-bcbe0591175b" x1="0%" y1="0%" x2="100%" y2="0%"><stop data-v-1084b650="" offset="0%" style="stop-color: rgb(229, 101, 0); stop-opacity: 1;"></stop> <stop data-v-1084b650="" offset="100%" style="stop-color: rgb(235, 197, 29); stop-opacity: 1;"></stop></linearGradient> <g data-v-1084b650="" id="754315dc-115b-6ae9-6956-3112157c5ae4" fill="url(#62b814c3-3d8b-9fa8-2941-bcbe0591175b)" stroke="none" transform="matrix(0.6999999999999997,0,0,0.6999999999999997,45.019736099243204,46.04971160888675)"><svg xmlns="http://www.w3.org/2000/svg" viewBox="0 0 100 100"><switch><g><g fill-rule="evenodd" clip-rule="evenodd"><path d="M57.686 37.34a15.965 15.965 0 0 1 5.502 4.466c3.798.853 7.455 2.232 9.047 4.471 3.943 5.546-12.08 7.567-20.437 8.052-8.357.485-20.047-2.267-23.394-5.955-2.143-2.362 3.495-5.003 10.206-6.586 1.606-1.938 3.582-3.495 5.757-4.551-10.935 1.159-31.035 5.524-30.646 16.726.187 5.362 7.166 6.92 15.221 7.194.555 5.75.582 22.835-1.549 28.942C25.238 96.272 39.425 99.039 49.5 99c9.839-.042 20.087-2.428 22.818-5.788 2.657-3.268-3.369-12.567-1.07-32.872 8.007-.817 14.801-2.983 15.013-8.39.321-8.287-15.643-13.175-28.575-14.61zm-8.232 30.216c-8.088.25-17.515-2.351-19.178-3.972l-.243-2.396c7.222.144 15.087-.636 19.604-.583 4.882.055 12.917.461 20.222-.138l-.204 2.806c-1.682 2.67-13.362 4.072-20.201 4.283z"></path><path d="M46.12 38.334c-4.376 1.74-7.902 5.728-9.253 10.222-.629 1.687 3.2 3.293 8.447 3.767 1.454.131 3.013.176 4.621.112 7.877-.319 14.991-1.245 14.911-2.099-.479-5.16-3.743-9.61-8.381-11.689 2.02-2.867 4.442-9.215 6.238-16.792 2.528-10.674 2.849-19.739.714-20.243-2.132-.506-5.911 7.738-8.44 18.413-1.753 7.409-2.442 14.037-1.986 17.571a14.703 14.703 0 0 0-1.078-.146 12.248 12.248 0 0 0-2.592.046c1.132-3.318 1.672-10.091 1.264-17.868C50.007 8.673 47.766-.115 45.574.001c-2.188.115-3.494 9.09-2.918 20.044.44 8.356 1.848 15.447 3.464 18.289zm11.08 7.212a2.04 2.04 0 0 1 1.849 2.216 2.04 2.04 0 1 1-4.065-.365 2.043 2.043 0 0 1 2.216-1.851zm-9.777 1.168a2.04 2.04 0 1 1-4.064-.368 2.04 2.04 0 0 1 4.064.368z"></path></g></g></switch></svg></g></svg>